# xmcd
#
# Track frame offsets: 
#        150
#        19770
#        39315
#        57035
#        81000
#        101829
#        125495
#        144397
#        163060
#        184962
#        204092
#        217987
#        236637
#        248617
#        273712
#
# Disc length: 3877 seconds
#
# Revision: 0
# Processed by: cddbd v1.5.2PL0 Copyright (c) Steve Scherf et al.
# Submitted via: ExactAudioCopy v1.0b3
#
DISCID=cc0f230f
DTITLE=Slow Down - Keb' Mo'
DYEAR=1998
DGENRE=Blues
TTITLE0=Muddy Water
TTITLE1=I Was Wrong
TTITLE2=Everything I Need
TTITLE3=Henry
TTITLE4=Soon As I Get Paid
TTITLE5=A Btter Man
TTITLE6=I Don't Know
TTITLE7=A Letter To Tracy
TTITLE8=Slow Down
TTITLE9=Rainmaker
TTITLE10=Love In Vain
TTITLE11=God Trying To Get Your Attention
TTITLE12=I'm Telling You Now
TTITLE13=Over And Over
TTITLE14=Just Like You (Live)
EXTD=
EXTT0=
EXTT1=
EXTT2=
EXTT3=
EXTT4=
EXTT5=
EXTT6=
EXTT7=
EXTT8=
EXTT9=
EXTT10=
EXTT11=
EXTT12=
EXTT13=
EXTT14=
PLAYORDER=
